<svg width="180" height="180" viewBox="0 0 180 180" fill="none" xmlns="http://www.w3.org/2000/svg">
  <style>
    @media (prefers-color-scheme: light) {
      .background { fill: #0F1B4C; }
      .foreground { fill: white; }
      .accent { fill: #E53935; }
    }
    @media (prefers-color-scheme: dark) {
      .background { fill: white; }
      .foreground { fill: #0F1B4C; }
      .accent { fill: #E53935; }
    }
  </style>
  <rect class="background" width="180" height="180" rx="37" />
  <g transform="translate(25, 30) scale(0.72)">
    <!-- L -->
    <path class="foreground" d="M18 20 L18 130 L55 130 L55 20 L40 20 L40 115 L18 115 Z" />
    <!-- P -->
    <path class="foreground" d="M60 20 L60 130 L75 130 L75 85 L95 85 C115 85 125 72 125 52.5 C125 33 115 20 95 20 Z M75 35 L92 35 C107 35 110 44 110 52.5 C110 61 107 70 92 70 L75 70 Z" />
    <!-- 3 -->
    <path class="foreground" d="M130 20 L170 20 L170 35 L145 35 L145 68 L165 68 L165 82 L145 82 L145 115 L170 115 L170 130 L130 130 L130 115 L130 82 L130 68 L130 35 Z" />
    <!-- i dot -->
    <circle class="accent" cx="162" cy="26" r="8" />
  </g>
</svg>